<svg xmlns="http://www.w3.org/2000/svg" xmlns:xlink="http://www.w3.org/1999/xlink" width="70" height="78" viewBox="0 0 70 78">
    <defs>
        <path id="a" d="M.142.245h10.36v28.09H.143z"/>
        <path id="c" d="M0 .205h64.84v68.167H0z"/>
    </defs>
    <g fill="none" fill-rule="evenodd">
        <path fill="#989899" d="M5.264 49.169s-3.232 2.466-1.984 9.66c1.395 8.034 9.94 13.259 17.965 10.57L5.264 49.17z"/>
        <g transform="translate(59.313 30.77)">
            <mask id="b" fill="#fff">
                <use xlink:href="#a"/>
            </mask>
            <path fill="#989899" d="M1.37.245s4.731 0 7.853 6.742c3.91 8.445-1.719 19.254-9.08 21.348L1.368.245z" mask="url(#b)"/>
        </g>
        <path fill="#EC8822" d="M31.804 76.514a1.07 1.07 0 0 1-.85-.417l-1.828-2.385-2.034 2.421a1.071 1.071 0 0 1-1.505.134 1.061 1.061 0 0 1-.135-1.499l2.892-3.44a1.072 1.072 0 0 1 1.669.036l2.64 3.441a1.06 1.06 0 0 1-.201 1.491 1.069 1.069 0 0 1-.648.218M47.117 76.514a1.07 1.07 0 0 1-.85-.417l-1.828-2.385-2.034 2.421a1.071 1.071 0 0 1-1.505.134 1.061 1.061 0 0 1-.134-1.499l2.89-3.44a1.072 1.072 0 0 1 1.669.036l2.64 3.441a1.06 1.06 0 0 1-.2 1.491 1.069 1.069 0 0 1-.648.218"/>
        <g transform="translate(0 4.174)">
            <mask id="d" fill="#fff">
                <use xlink:href="#c"/>
            </mask>
            <path fill="#E7E4E2" d="M7.153 51.912s-15.906-22.076-.28-40.426c15.6-18.32 50.304-15.18 56.964 15.703 5.782 26.809-15.1 39.378-20.18 39.963-2.956.34-3.833-2.58-7.08-2.58-2.984 0-5.166 3.794-7.922 3.798-1.688.003-14.947.52-21.502-16.458" mask="url(#d)"/>
        </g>
        <path fill="#989899" d="M20.155 9.079s.69-3.112 2.98-5.188c1.94-1.76.205-2.883-1.24-.642-1.184 1.835-1.74 5.83-1.74 5.83M18.481 9.21s-1.742-2.287-4.198-2.81c-1.757-.374-1.565-1.767-.983-2.169 1.084-.745 2.937.443 5.181 4.98M17.145 9.483s-5.81-2.303-7.503-.025c-1.166 1.57 4.124-.27 7.503.025"/>
        <path fill="#FFF" d="M36.562 11.128c-2.825.782-5.203 2.239-7.027 4.138-2.379 2.476-5.881 3.704-9.428 3.295a16.568 16.568 0 0 0-8.382 1.217c-7.298 3.084-11.58 11.2-9.771 19.09 2.25 9.826 12.463 15.373 21.92 11.854a16.624 16.624 0 0 0 6.746-4.654c2.477-2.836 6.178-4.202 9.944-3.685 2.669.367 5.424.112 8.042-.862 9.03-3.36 12.472-13.632 7.618-22.12-3.912-6.84-12.312-10.306-19.662-8.273"/>
        <path fill="#EC8822" d="M27.415 31.751l4.618 3.536.308-5.614s-3.003-.4-4.926 2.078"/>
        <path fill="#231F20" d="M19.716 33.818a4.959 4.959 0 0 1-2.646 6.513c-2.537 1.072-5.467-.108-6.543-2.634a4.96 4.96 0 0 1 2.647-6.513c2.537-1.071 5.466.108 6.542 2.634"/>
        <path fill="#FFF" d="M15.103 34.402a1.765 1.765 0 0 1-.942 2.317 1.779 1.779 0 0 1-2.328-.937c-.383-.899.039-1.937.942-2.318a1.779 1.779 0 0 1 2.328.938"/>
        <path fill="#231F20" d="M49.471 22.66a4.959 4.959 0 0 1-2.646 6.513c-2.537 1.072-5.467-.108-6.543-2.634a4.96 4.96 0 0 1 2.647-6.512c2.537-1.072 5.466.108 6.542 2.634"/>
        <path fill="#FFF" d="M44.858 23.244a1.765 1.765 0 0 1-.941 2.317 1.779 1.779 0 0 1-2.329-.936c-.383-.9.039-1.937.942-2.318a1.779 1.779 0 0 1 2.328.937"/>
        <path fill="#989899" d="M17.718 57.68a4.316 4.316 0 0 1-3.348-2.117 3.528 3.528 0 0 0 3.21 3.686c1.892.165 3.561-1.204 3.804-3.077a4.323 4.323 0 0 1-3.666 1.507M27.441 63.684a4.316 4.316 0 0 1-3.348-2.117 3.529 3.529 0 0 0 3.21 3.687c1.892.164 3.562-1.205 3.804-3.077a4.326 4.326 0 0 1-3.666 1.507M40.295 62.232a4.329 4.329 0 0 1-3.836-1.003c.493 1.824 2.333 2.956 4.185 2.54a3.523 3.523 0 0 0 2.682-4.083 4.307 4.307 0 0 1-3.031 2.546M50.788 57.035a4.29 4.29 0 0 0 1.83-3.503c1.026 1.59.633 3.707-.92 4.792-1.554 1.087-3.688.736-4.841-.764 1.28.45 2.743.305 3.93-.525M29.617 57.045a4.322 4.322 0 0 1-3.634-1.58c.203 1.877 1.845 3.279 3.739 3.153 1.894-.125 3.334-1.732 3.285-3.62a4.318 4.318 0 0 1-3.39 2.047M53.753 46.778a4.286 4.286 0 0 0 1.509-3.651c1.165 1.49.963 3.635-.487 4.855-1.45 1.22-3.606 1.06-4.89-.33a4.33 4.33 0 0 0 3.868-.874M43.666 53.091a4.294 4.294 0 0 0 2.052-3.378c.922 1.651.393 3.739-1.227 4.724-1.62.984-3.727.499-4.781-1.072a4.333 4.333 0 0 0 3.956-.274"/>
    </g>
</svg>
